<svg id="Layer_1" data-name="Layer 1" xmlns="http://www.w3.org/2000/svg" viewBox="0 0 1104.15 1104.15"><defs><style>.cls-1{fill:#3379c7;}.cls-2{fill:#81c000;}</style></defs><path class="cls-1" d="M552.48,335.12c119.62,0,216.58,97,216.58,216.57s-97,216.58-216.58,216.58-216.57-97-216.57-216.58,97-216.57,216.57-216.57m0-20a235.84,235.84,0,1,0,92.1,18.59,235.16,235.16,0,0,0-92.1-18.59Z"/><polygon class="cls-2" points="602.07 832.33 602.07 832.33 602.07 832.33 602.07 832.33 602.07 832.33 567.57 827.31 552.14 796.04 536.7 827.31 534.22 827.67 502.2 832.33 502.2 832.33 502.2 832.33 527.17 856.66 527.17 856.66 523.71 876.8 521.27 891.03 521.27 891.03 552.14 874.81 583 891.03 583 891.03 583 891.03 583 891.03 583 891.03 577.11 856.66 577.11 856.66 602.07 832.33 602.07 832.33 602.07 832.33 602.07 832.33"/></svg>