<svg id="Layer_1" data-name="Layer 1" xmlns="http://www.w3.org/2000/svg" viewBox="0 0 1104.15 1104.15"><defs><style>.cls-1{fill:#3379c7;}.cls-2{fill:#81c000;}.cls-3{fill:#ffb600;}</style></defs><path class="cls-1" d="M552.07,335.5c119.62,0,216.58,97,216.58,216.57s-97,216.58-216.58,216.58-216.57-97-216.57-216.58,97-216.57,216.57-216.57m0-20a235.9,235.9,0,1,0,92.1,18.6,235,235,0,0,0-92.1-18.6Z"/><polygon class="cls-2" points="601.66 832.71 601.66 832.71 601.66 832.71 601.66 832.71 601.66 832.71 567.15 827.69 551.72 796.43 536.29 827.69 533.81 828.05 501.79 832.71 501.79 832.71 501.79 832.71 526.75 857.05 526.75 857.05 523.3 877.18 520.86 891.41 520.86 891.41 551.72 875.19 582.59 891.41 582.59 891.41 582.59 891.41 582.59 891.41 582.59 891.41 576.69 857.05 576.69 857.05 601.66 832.71 601.66 832.71 601.66 832.71 601.66 832.71"/><polygon class="cls-1" points="785.58 715.45 785.58 715.45 785.58 715.45 785.58 715.45 785.58 715.45 757.63 736.3 724.61 725.11 735.81 758.13 734.3 760.14 714.95 786.07 714.95 786.07 714.95 786.07 749.82 785.63 749.82 785.63 761.61 802.3 769.95 814.1 769.95 814.1 780.3 780.8 813.6 770.45 813.6 770.45 813.6 770.45 813.6 770.45 813.6 770.45 785.13 750.31 785.13 750.31 785.58 715.45 785.58 715.45 785.58 715.45 785.58 715.45"/><polygon class="cls-1" points="388.7 785.58 388.7 785.58 388.7 785.58 388.7 785.58 388.7 785.58 367.85 757.63 379.04 724.61 346.02 735.81 344.01 734.3 318.08 714.95 318.08 714.95 318.08 714.95 318.52 749.82 318.52 749.82 301.85 761.61 290.05 769.95 290.05 769.95 323.35 780.3 333.7 813.6 333.7 813.6 333.7 813.6 333.7 813.6 333.7 813.6 353.83 785.13 353.83 785.13 388.7 785.58 388.7 785.58 388.7 785.58 388.7 785.58"/><circle class="cls-3" cx="446.07" cy="814.07" r="18"/><circle class="cls-3" cx="662.38" cy="812.29" r="18"/></svg>