<svg id="Layer_1" data-name="Layer 1" xmlns="http://www.w3.org/2000/svg" xmlns:xlink="http://www.w3.org/1999/xlink" viewBox="0 0 1104.15 1104.15"><defs><style>.cls-1{fill:url(#linear-gradient);}.cls-2{fill:url(#linear-gradient-2);}.cls-3{fill:url(#linear-gradient-3);}.cls-4{fill:url(#linear-gradient-4);}.cls-5{fill:url(#linear-gradient-5);}.cls-6{fill:url(#linear-gradient-6);}.cls-7{fill:url(#linear-gradient-7);}.cls-8{fill:url(#linear-gradient-8);}.cls-9{fill:url(#linear-gradient-9);}.cls-10{fill:url(#linear-gradient-10);}.cls-11{fill:url(#linear-gradient-11);}.cls-12{fill:url(#linear-gradient-12);}.cls-13{fill:url(#linear-gradient-13);}.cls-14{fill:url(#linear-gradient-14);}.cls-15{fill:url(#linear-gradient-15);}.cls-16{fill:url(#linear-gradient-16);}.cls-17{fill:url(#linear-gradient-17);}.cls-18{fill:url(#linear-gradient-18);}.cls-19{fill:url(#linear-gradient-19);}.cls-20{fill:url(#linear-gradient-20);}.cls-21{fill:url(#linear-gradient-21);}.cls-22{fill:url(#linear-gradient-22);}.cls-23{fill:url(#linear-gradient-23);}.cls-24{fill:url(#linear-gradient-24);}.cls-25{fill:url(#linear-gradient-25);}.cls-26{fill:url(#linear-gradient-26);}.cls-27{fill:url(#linear-gradient-27);}.cls-28{fill:url(#linear-gradient-28);}.cls-29{fill:url(#linear-gradient-29);}.cls-30{fill:url(#linear-gradient-30);}.cls-31{fill:url(#linear-gradient-31);}.cls-32{fill:url(#linear-gradient-32);}.cls-33{fill:url(#linear-gradient-33);}.cls-34{fill:url(#linear-gradient-34);}.cls-35{fill:#3379c7;}.cls-36{fill:url(#Degradado_sin_nombre_45);}.cls-37{fill:url(#Degradado_sin_nombre_45-2);}.cls-38{fill:url(#Degradado_sin_nombre_45-3);}.cls-39{fill:url(#Degradado_sin_nombre_45-4);}.cls-40{fill:url(#Degradado_sin_nombre_45-5);}.cls-41{fill:url(#Degradado_sin_nombre_45-6);}.cls-42{fill:url(#Degradado_sin_nombre_45-7);}.cls-43{fill:url(#Degradado_sin_nombre_45-8);}.cls-44{fill:url(#Degradado_sin_nombre_45-9);}.cls-45{fill:url(#Degradado_sin_nombre_45-10);}</style><linearGradient id="linear-gradient" x1="349.89" y1="631.02" x2="263.42" y2="631.02" gradientUnits="userSpaceOnUse"><stop offset="0.74" stop-color="#b57e10"/><stop offset="1" stop-color="#b57e10"/></linearGradient><linearGradient id="linear-gradient-2" x1="263.42" y1="604.41" x2="271.23" y2="604.41" gradientUnits="userSpaceOnUse"><stop offset="0" stop-color="#9187aa"/><stop offset="0.5" stop-color="#3e2f5b"/><stop offset="1" stop-color="#230e44"/></linearGradient><linearGradient id="linear-gradient-3" x1="349.89" y1="617.72" x2="263.42" y2="617.72" xlink:href="#linear-gradient"/><linearGradient id="linear-gradient-4" x1="263.42" y1="617.72" x2="349.89" y2="617.72" xlink:href="#linear-gradient-2"/><linearGradient id="linear-gradient-5" x1="340.37" y1="571.29" x2="198.23" y2="571.29" gradientUnits="userSpaceOnUse"><stop offset="0.75" stop-color="#93b4d9"/><stop offset="1" stop-color="#93b4d9"/></linearGradient><linearGradient id="linear-gradient-6" x1="198.23" y1="544.68" x2="206.04" y2="544.68" xlink:href="#linear-gradient-2"/><linearGradient id="linear-gradient-7" x1="336.35" y1="557.98" x2="198.23" y2="557.98" xlink:href="#linear-gradient-5"/><linearGradient id="linear-gradient-8" x1="198.23" y1="557.98" x2="349.89" y2="557.98" xlink:href="#linear-gradient-2"/><linearGradient id="linear-gradient-9" x1="339.3" y1="511.55" x2="133.04" y2="511.55" xlink:href="#linear-gradient"/><linearGradient id="linear-gradient-10" x1="133.04" y1="484.94" x2="140.85" y2="484.94" xlink:href="#linear-gradient-2"/><linearGradient id="linear-gradient-11" x1="346.12" y1="498.24" x2="133.04" y2="498.24" xlink:href="#linear-gradient"/><linearGradient id="linear-gradient-12" x1="133.04" y1="498.24" x2="349.89" y2="498.24" xlink:href="#linear-gradient-2"/><linearGradient id="linear-gradient-13" x1="350.98" y1="452.55" x2="74.04" y2="452.55" xlink:href="#linear-gradient-5"/><linearGradient id="linear-gradient-14" x1="74.04" y1="425.94" x2="81.85" y2="425.94" xlink:href="#linear-gradient-2"/><linearGradient id="linear-gradient-15" x1="74.04" y1="439.24" x2="361.89" y2="439.24" xlink:href="#linear-gradient-2"/><linearGradient id="linear-gradient-16" x1="361.89" y1="439.24" x2="74.04" y2="439.24" xlink:href="#linear-gradient-5"/><linearGradient id="linear-gradient-17" x1="74.04" y1="439.24" x2="361.89" y2="439.24" xlink:href="#linear-gradient-2"/><linearGradient id="linear-gradient-18" x1="840.73" y1="631.02" x2="754.26" y2="631.02" xlink:href="#linear-gradient"/><linearGradient id="linear-gradient-19" x1="-2070.58" y1="604.41" x2="-2062.77" y2="604.41" gradientTransform="matrix(-1, 0, 0, 1, -1229.85, 0)" xlink:href="#linear-gradient-2"/><linearGradient id="linear-gradient-20" x1="-1984.11" y1="617.72" x2="-2070.58" y2="617.72" gradientTransform="matrix(-1, 0, 0, 1, -1229.85, 0)" xlink:href="#linear-gradient"/><linearGradient id="linear-gradient-21" x1="-2070.58" y1="617.72" x2="-1984.11" y2="617.72" gradientTransform="matrix(-1, 0, 0, 1, -1229.85, 0)" xlink:href="#linear-gradient-2"/><linearGradient id="linear-gradient-22" x1="905.92" y1="571.29" x2="763.78" y2="571.29" xlink:href="#linear-gradient-5"/><linearGradient id="linear-gradient-23" x1="-2135.77" y1="544.68" x2="-2127.96" y2="544.68" gradientTransform="matrix(-1, 0, 0, 1, -1229.85, 0)" xlink:href="#linear-gradient-2"/><linearGradient id="linear-gradient-24" x1="-1997.65" y1="557.98" x2="-2135.77" y2="557.98" gradientTransform="matrix(-1, 0, 0, 1, -1229.85, 0)" xlink:href="#linear-gradient-5"/><linearGradient id="linear-gradient-25" x1="-2135.77" y1="557.98" x2="-1984.11" y2="557.98" gradientTransform="matrix(-1, 0, 0, 1, -1229.85, 0)" xlink:href="#linear-gradient-2"/><linearGradient id="linear-gradient-26" x1="971.11" y1="511.55" x2="764.85" y2="511.55" xlink:href="#linear-gradient"/><linearGradient id="linear-gradient-27" x1="-2200.96" y1="484.94" x2="-2193.15" y2="484.94" gradientTransform="matrix(-1, 0, 0, 1, -1229.85, 0)" xlink:href="#linear-gradient-2"/><linearGradient id="linear-gradient-28" x1="-1987.88" y1="498.24" x2="-2200.96" y2="498.24" gradientTransform="matrix(-1, 0, 0, 1, -1229.85, 0)" xlink:href="#linear-gradient"/><linearGradient id="linear-gradient-29" x1="-2200.96" y1="498.24" x2="-1984.11" y2="498.24" gradientTransform="matrix(-1, 0, 0, 1, -1229.85, 0)" xlink:href="#linear-gradient-2"/><linearGradient id="linear-gradient-30" x1="1030.11" y1="452.55" x2="753.17" y2="452.55" xlink:href="#linear-gradient-5"/><linearGradient id="linear-gradient-31" x1="-2259.96" y1="425.94" x2="-2252.15" y2="425.94" gradientTransform="matrix(-1, 0, 0, 1, -1229.85, 0)" xlink:href="#linear-gradient-2"/><linearGradient id="linear-gradient-32" x1="-2259.96" y1="439.24" x2="-1972.11" y2="439.24" gradientTransform="matrix(-1, 0, 0, 1, -1229.85, 0)" xlink:href="#linear-gradient-2"/><linearGradient id="linear-gradient-33" x1="-1972.11" y1="439.24" x2="-2259.96" y2="439.24" gradientTransform="matrix(-1, 0, 0, 1, -1229.85, 0)" xlink:href="#linear-gradient-5"/><linearGradient id="linear-gradient-34" x1="-2259.96" y1="439.24" x2="-1972.11" y2="439.24" gradientTransform="matrix(-1, 0, 0, 1, -1229.85, 0)" xlink:href="#linear-gradient-2"/><linearGradient id="Degradado_sin_nombre_45" x1="290.55" y1="339.38" x2="389.19" y2="339.38" gradientUnits="userSpaceOnUse"><stop offset="0" stop-color="#230e44"/><stop offset="0.5" stop-color="#3e2f5b"/><stop offset="1" stop-color="#9187aa"/></linearGradient><linearGradient id="Degradado_sin_nombre_45-2" x1="715.45" y1="339.87" x2="814.09" y2="339.87" xlink:href="#Degradado_sin_nombre_45"/><linearGradient id="Degradado_sin_nombre_45-3" x1="426.34" y1="290.08" x2="466.34" y2="290.08" xlink:href="#Degradado_sin_nombre_45"/><linearGradient id="Degradado_sin_nombre_45-4" x1="469.76" y1="267.19" x2="637.76" y2="267.19" xlink:href="#Degradado_sin_nombre_45"/><linearGradient id="Degradado_sin_nombre_45-5" x1="501.79" y1="843.92" x2="601.66" y2="843.92" xlink:href="#Degradado_sin_nombre_45"/><linearGradient id="Degradado_sin_nombre_45-6" x1="714.95" y1="764.77" x2="813.6" y2="764.77" xlink:href="#Degradado_sin_nombre_45"/><linearGradient id="Degradado_sin_nombre_45-7" x1="290.05" y1="764.28" x2="388.7" y2="764.28" xlink:href="#Degradado_sin_nombre_45"/><linearGradient id="Degradado_sin_nombre_45-8" x1="426.34" y1="814.07" x2="466.34" y2="814.07" xlink:href="#Degradado_sin_nombre_45"/><linearGradient id="Degradado_sin_nombre_45-9" x1="642.12" y1="812.29" x2="682.12" y2="812.29" xlink:href="#Degradado_sin_nombre_45"/><linearGradient id="Degradado_sin_nombre_45-10" x1="642.12" y1="291.86" x2="682.12" y2="291.86" xlink:href="#Degradado_sin_nombre_45"/></defs><path class="cls-1" d="M263.42,604.41,278.78,631a53.22,53.22,0,0,0,46.09,26.61h25V631H309.51A53.22,53.22,0,0,1,263.42,604.41Z"/><polygon class="cls-2" points="263.42 604.41 263.42 604.41 263.42 604.41 263.42 604.41"/><path class="cls-3" d="M263.42,604.41h0A53.22,53.22,0,0,0,309.51,631h40.38v-1.19a215.74,215.74,0,0,1-8-25.42Z"/><path class="cls-4" d="M263.42,604.41h0A53.22,53.22,0,0,0,309.51,631h40.38v-1.19a215.74,215.74,0,0,1-8-25.42Z"/><path class="cls-5" d="M244.32,571.28a53.23,53.23,0,0,1-46.09-26.6l15.36,26.6a53.22,53.22,0,0,0,46.09,26.61h80.69a217.06,217.06,0,0,1-4-26.61Z"/><polygon class="cls-6" points="198.23 544.67 198.23 544.68 198.23 544.67 198.23 544.67"/><path class="cls-7" d="M244.32,571.28h92c-.55-6.33-.85-12.73-.85-19.21,0-2.48.05-4.94.13-7.39H198.23A53.23,53.23,0,0,0,244.32,571.28Z"/><path class="cls-8" d="M244.32,571.28h92c-.55-6.33-.85-12.73-.85-19.21,0-2.48.05-4.94.13-7.39H198.23A53.23,53.23,0,0,0,244.32,571.28Z"/><path class="cls-9" d="M179.13,511.55A53.23,53.23,0,0,1,133,484.94l15.36,26.61a53.24,53.24,0,0,0,46.09,26.61H336a217.12,217.12,0,0,1,3.35-26.61Z"/><polygon class="cls-10" points="133.04 484.94 133.04 484.94 133.04 484.94 133.04 484.94"/><path class="cls-11" d="M179.13,511.55H339.3a213.87,213.87,0,0,1,6.82-26.61H133A53.23,53.23,0,0,0,179.13,511.55Z"/><path class="cls-12" d="M179.13,511.55H339.3a213.87,213.87,0,0,1,6.82-26.61H133A53.23,53.23,0,0,0,179.13,511.55Z"/><path class="cls-13" d="M340.07,479.16,351,452.55H120.13A53.23,53.23,0,0,1,74,425.94L89.4,452.55a53.24,53.24,0,0,0,46.09,26.61Z"/><polygon class="cls-14" points="74.04 425.94 74.04 425.94 74.04 425.94 74.04 425.94"/><polygon class="cls-15" points="352.07 452.55 361.89 425.94 350.98 452.55 352.07 452.55"/><path class="cls-16" d="M120.13,452.55H351l10.91-26.61H74A53.23,53.23,0,0,0,120.13,452.55Z"/><path class="cls-17" d="M120.13,452.55H351l10.91-26.61H74A53.23,53.23,0,0,0,120.13,452.55Z"/><path class="cls-18" d="M794.64,631H754.26v26.61h25A53.19,53.19,0,0,0,825.36,631l15.37-26.61A53.22,53.22,0,0,1,794.64,631Z"/><polygon class="cls-19" points="840.73 604.41 840.73 604.41 840.73 604.41 840.73 604.41"/><path class="cls-20" d="M754.26,631h40.38a53.22,53.22,0,0,0,46.09-26.61H762.27a215.74,215.74,0,0,1-8,25.42Z"/><path class="cls-21" d="M754.26,631h40.38a53.22,53.22,0,0,0,46.09-26.61H762.27a215.74,215.74,0,0,1-8,25.42Z"/><path class="cls-22" d="M859.83,571.28h-92a215.14,215.14,0,0,1-4,26.61h80.69a53.22,53.22,0,0,0,46.09-26.61l15.36-26.6A53.23,53.23,0,0,1,859.83,571.28Z"/><polygon class="cls-23" points="905.92 544.67 905.92 544.67 905.92 544.68 905.92 544.67"/><path class="cls-24" d="M767.79,571.28h92a53.23,53.23,0,0,0,46.09-26.6H768.51q.13,3.68.14,7.39C768.65,558.55,768.35,565,767.79,571.28Z"/><path class="cls-25" d="M767.79,571.28h92a53.23,53.23,0,0,0,46.09-26.6H768.51q.13,3.68.14,7.39C768.65,558.55,768.35,565,767.79,571.28Z"/><path class="cls-26" d="M925,511.55H764.85a215.19,215.19,0,0,1,3.34,26.61H909.66a53.24,53.24,0,0,0,46.09-26.61l15.36-26.61A53.24,53.24,0,0,1,925,511.55Z"/><polygon class="cls-27" points="971.11 484.94 971.11 484.94 971.11 484.94 971.11 484.94"/><path class="cls-28" d="M764.85,511.55H925a53.24,53.24,0,0,0,46.09-26.61H758A215.64,215.64,0,0,1,764.85,511.55Z"/><path class="cls-29" d="M764.85,511.55H925a53.24,53.24,0,0,0,46.09-26.61H758A215.64,215.64,0,0,1,764.85,511.55Z"/><path class="cls-30" d="M984,452.55H753.17l10.9,26.61H968.66a53.24,53.24,0,0,0,46.09-26.61l15.36-26.61A53.24,53.24,0,0,1,984,452.55Z"/><polygon class="cls-31" points="1030.11 425.94 1030.11 425.94 1030.11 425.94 1030.11 425.94"/><polygon class="cls-32" points="752.07 452.55 753.17 452.55 742.26 425.94 752.07 452.55"/><path class="cls-33" d="M742.26,425.94l10.91,26.61H984a53.24,53.24,0,0,0,46.09-26.61H742.26Z"/><path class="cls-34" d="M742.26,425.94l10.91,26.61H984a53.24,53.24,0,0,0,46.09-26.61H742.26Z"/><path class="cls-35" d="M350.91,353.73l-3.56-3.51a287.52,287.52,0,0,1,408-1.44l-3.54,3.53a282.52,282.52,0,0,0-400.92,1.42Z"/><polygon class="cls-36" points="318.57 388.7 318.57 388.7 318.57 388.7 318.57 388.7 318.57 388.7 346.52 367.85 379.54 379.04 368.34 346.02 369.84 344.01 389.19 318.08 389.19 318.08 389.19 318.08 354.33 318.52 354.33 318.52 342.54 301.85 334.2 290.05 334.2 290.05 323.85 323.35 290.55 333.7 290.55 333.7 290.55 333.7 290.55 333.7 290.55 333.7 319.02 353.83 319.02 353.83 318.57 388.7 318.57 388.7 318.57 388.7 318.57 388.7"/><polygon class="cls-37" points="715.45 318.57 715.45 318.57 715.45 318.57 715.45 318.57 715.45 318.57 736.3 346.52 725.11 379.54 758.13 368.34 760.14 369.84 786.07 389.19 786.07 389.19 786.07 389.19 785.63 354.33 785.63 354.33 802.3 342.54 814.1 334.2 814.1 334.2 780.8 323.85 770.45 290.55 770.45 290.55 770.45 290.55 770.45 290.55 770.45 290.55 750.31 319.02 750.31 319.02 715.45 318.57 715.45 318.57 715.45 318.57 715.45 318.57"/><circle class="cls-38" cx="446.34" cy="290.08" r="20"/><polygon class="cls-39" points="583.5 274.44 550.93 209.31 519.55 272.08 482.36 209.31 493.45 325.07 610.99 325.07 622.07 209.31 583.5 274.44"/><path class="cls-35" d="M552.07,335.5c119.62,0,216.58,97,216.58,216.57s-97,216.58-216.58,216.58-216.57-97-216.57-216.58,97-216.57,216.57-216.57m0-20a235.9,235.9,0,1,0,92.1,18.6,235,235,0,0,0-92.1-18.6Z"/><path class="cls-35" d="M552.07,839.57a285.71,285.71,0,0,1-202.88-83.79l3.53-3.54a282.51,282.51,0,0,0,399.11-.41l3.54,3.53A285.59,285.59,0,0,1,552.07,839.57Z"/><polygon class="cls-40" points="601.66 832.71 601.66 832.71 601.66 832.71 601.66 832.71 601.66 832.71 567.15 827.69 551.72 796.43 536.29 827.69 533.81 828.05 501.79 832.71 501.79 832.71 501.79 832.71 526.75 857.05 526.75 857.05 523.3 877.18 520.86 891.41 520.86 891.41 551.72 875.19 582.59 891.41 582.59 891.41 582.59 891.41 582.59 891.41 582.59 891.41 576.69 857.05 576.69 857.05 601.66 832.71 601.66 832.71 601.66 832.71 601.66 832.71"/><polygon class="cls-41" points="785.58 715.45 785.58 715.45 785.58 715.45 785.58 715.45 785.58 715.45 757.63 736.3 724.61 725.11 735.81 758.13 734.3 760.14 714.95 786.07 714.95 786.07 714.95 786.07 749.82 785.63 749.82 785.63 761.61 802.3 769.95 814.1 769.95 814.1 780.3 780.8 813.6 770.45 813.6 770.45 813.6 770.45 813.6 770.45 813.6 770.45 785.13 750.31 785.13 750.31 785.58 715.45 785.58 715.45 785.58 715.45 785.58 715.45"/><polygon class="cls-42" points="388.7 785.58 388.7 785.58 388.7 785.58 388.7 785.58 388.7 785.58 367.85 757.63 379.04 724.61 346.02 735.81 344.01 734.3 318.08 714.95 318.08 714.95 318.08 714.95 318.52 749.82 318.52 749.82 301.85 761.61 290.05 769.95 290.05 769.95 323.35 780.3 333.7 813.6 333.7 813.6 333.7 813.6 333.7 813.6 333.7 813.6 353.83 785.13 353.83 785.13 388.7 785.58 388.7 785.58 388.7 785.58 388.7 785.58"/><circle class="cls-43" cx="446.34" cy="814.07" r="20"/><circle class="cls-44" cx="662.12" cy="812.29" r="20"/><circle class="cls-45" cx="662.12" cy="291.86" r="20"/></svg>